<?xml version="1.0" standalone="no"?>
<!DOCTYPE svg PUBLIC "-//W3C//DTD SVG 20010904//EN"
 "http://www.w3.org/TR/2001/REC-SVG-20010904/DTD/svg10.dtd">
<svg version="1.0" xmlns="http://www.w3.org/2000/svg"
 width="492.000000pt" height="77.000000pt" viewBox="0 0 492.000000 77.000000"
 preserveAspectRatio="xMidYMid meet">

<g transform="translate(0.000000,77.000000) scale(0.100000,-0.100000)"
fill="#000000" stroke="none">
<path d="M127 642 l-97 -98 2 -264 3 -265 262 0 263 0 100 100 100 100 -2 260
-3 260 -265 3 -265 2 -98 -98z m468 -32 l-69 -70 -210 0 -210 0 69 70 69 70
210 0 210 0 -69 -70z m115 -166 l0 -196 -71 -77 c-39 -42 -75 -77 -80 -79 -5
-2 -9 85 -9 197 l0 200 73 74 c39 40 75 74 80 75 4 1 7 -86 7 -194z m-450
-169 l0 -205 -90 0 -90 0 0 205 0 205 90 0 90 0 0 -205z m240 0 l0 -205 -90 0
-90 0 0 205 0 205 90 0 90 0 0 -205z"/>
<path d="M1694 657 l26 -19 0 -245 0 -244 25 19 c25 19 25 19 65 0 51 -26 98
-18 145 23 72 63 74 221 5 291 -39 38 -106 40 -147 3 l-28 -26 38 22 c32 18
42 20 66 9 41 -17 56 -60 56 -160 0 -96 -15 -138 -57 -157 -21 -11 -33 -11
-65 -1 l-38 13 -2 130 c-1 72 -2 183 -3 247 l0 117 -56 -1 -56 -2 26 -19z"/>
<path d="M4475 668 c31 -18 35 -28 35 -111 l0 -78 -22 15 c-31 22 -96 20 -136
-4 -86 -52 -98 -232 -21 -306 41 -39 114 -42 153 -5 26 24 26 24 26 3 0 -20 5
-22 58 -22 48 1 54 2 37 12 -11 6 -23 16 -27 22 -4 6 -8 118 -8 249 l0 237
-57 0 c-49 -1 -55 -2 -38 -12z m16 -189 c19 -19 20 -30 17 -146 -3 -117 -4
-126 -27 -144 -30 -25 -72 -24 -99 1 -56 53 -57 227 0 287 28 30 80 31 109 2z"/>
<path d="M965 623 c43 -11 45 -18 45 -192 0 -138 3 -172 18 -200 36 -73 123
-99 204 -63 70 31 81 62 87 267 6 168 6 170 31 182 22 11 18 13 -45 12 -45 -1
-61 -4 -45 -8 44 -12 51 -42 47 -201 -2 -80 -9 -157 -15 -172 -26 -63 -99 -92
-165 -64 -51 21 -59 56 -55 261 l3 169 25 7 c14 4 -14 7 -65 7 -49 0 -81 -3
-70 -5z"/>
<path d="M2968 613 c13 -12 46 -98 92 -236 40 -120 76 -215 80 -210 4 4 29 79
56 166 26 86 50 157 53 157 4 0 31 -71 60 -157 30 -87 57 -162 61 -166 4 -4
35 84 70 195 74 238 76 243 104 256 16 8 6 11 -49 10 -38 0 -61 -3 -50 -5 30
-8 45 -23 44 -47 0 -11 -22 -86 -48 -166 l-48 -145 -51 158 c-29 87 -52 165
-52 173 0 8 10 19 23 24 16 6 3 9 -51 9 -66 1 -72 -1 -58 -14 9 -9 21 -33 27
-54 10 -34 7 -51 -28 -166 -22 -70 -42 -124 -45 -119 -7 11 -108 320 -108 329
0 3 10 10 23 15 16 6 3 9 -52 9 -71 1 -73 0 -53 -16z"/>
<path d="M1441 503 c-43 -4 -44 -5 -20 -16 24 -12 24 -15 27 -154 l3 -142 -28
-15 c-27 -14 -23 -15 67 -15 l95 0 -35 17 -35 17 -3 90 c-2 50 0 104 3 122 7
40 56 93 86 93 18 0 20 -3 11 -12 -17 -17 -15 -55 4 -62 26 -10 34 -7 46 19
15 34 -12 65 -58 65 -25 0 -39 -8 -63 -37 l-31 -38 0 38 c0 24 -4 36 -12 35
-7 -1 -33 -3 -57 -5z"/>
<path d="M2123 490 c-40 -24 -47 -74 -13 -85 42 -13 69 43 33 64 -16 9 -16 12
-3 21 23 15 87 12 104 -6 19 -19 21 -97 3 -112 -7 -6 -39 -20 -71 -33 -74 -27
-106 -58 -106 -99 0 -73 96 -107 158 -55 l29 24 11 -24 c12 -25 49 -33 86 -19
25 10 19 22 -8 17 l-24 -5 -4 142 c-3 141 -3 142 -31 166 -37 31 -117 33 -164
4z m112 -287 c-49 -43 -105 -21 -105 41 0 42 14 59 75 89 l50 25 3 -67 c3 -61
1 -68 -23 -88z"/>
<path d="M2441 503 c-43 -4 -44 -5 -20 -16 24 -12 24 -15 27 -154 l3 -142 -28
-15 c-27 -15 -25 -15 52 -16 76 0 78 1 56 16 -22 16 -23 21 -21 143 3 177 2
191 -12 189 -7 -1 -33 -3 -57 -5z"/>
<path d="M2559 495 c-15 -8 -30 -22 -33 -32 -5 -13 -1 -12 18 6 32 30 83 32
102 6 10 -14 14 -55 14 -151 0 -125 -1 -132 -22 -147 -22 -15 -19 -16 57 -16
77 0 79 0 53 15 -28 15 -28 15 -28 127 0 125 -12 182 -40 197 -27 14 -90 12
-121 -5z"/>
<path d="M3613 490 c-55 -33 -80 -105 -68 -198 13 -101 101 -161 196 -133 62
19 93 68 97 157 5 86 -19 148 -67 177 -40 23 -117 22 -158 -3z m140 -22 c28
-38 37 -186 14 -240 -31 -74 -100 -87 -137 -26 -41 68 -34 226 12 275 31 33
83 28 111 -9z"/>
<path d="M3983 490 c-55 -33 -80 -105 -68 -198 13 -101 101 -161 196 -133 62
19 93 68 97 157 5 86 -19 148 -67 177 -40 23 -117 22 -158 -3z m140 -22 c28
-38 37 -186 14 -240 -31 -74 -100 -87 -137 -26 -41 68 -34 226 12 275 31 33
83 28 111 -9z"/>
<path d="M4706 489 c-20 -16 -26 -29 -26 -58 0 -44 20 -69 97 -121 60 -40 77
-68 63 -105 -14 -36 -51 -51 -89 -35 -28 11 -38 28 -65 110 -2 8 -5 -16 -5
-55 0 -38 3 -64 7 -58 6 10 17 9 49 -3 80 -31 163 9 163 78 0 45 -20 70 -91
118 -68 47 -93 79 -82 106 9 26 23 34 61 34 38 0 70 -28 79 -70 9 -49 23 -34
23 25 0 50 -12 73 -22 43 -4 -10 -10 -10 -32 0 -42 19 -100 15 -130 -9z"/>
</g>
</svg>
